<svg width="24" height="24" viewBox="0 0 24 24" fill="none" xmlns="http://www.w3.org/2000/svg">
<g id="Icon/Fill/arrow-left">
<path id="Mask" fill-rule="evenodd" clip-rule="evenodd" d="M5 13.0001L16.865 13.0001L13.232 17.3601C12.878 17.7841 12.936 18.4151 13.36 18.7681C13.785 19.1221 14.415 19.0641 14.768 18.6401L19.768 12.6401C19.807 12.5931 19.827 12.5381 19.856 12.4861C19.88 12.4441 19.909 12.4081 19.927 12.3621C19.972 12.2471 19.999 12.1261 19.999 12.0041C19.999 12.0031 20 12.0011 20 12.0001C20 11.9991 19.999 11.9971 19.999 11.9961C19.999 11.8741 19.972 11.7531 19.927 11.6381C19.909 11.5921 19.88 11.5561 19.856 11.5141C19.827 11.4621 19.807 11.4071 19.768 11.3601L14.768 5.36009C14.57 5.12309 14.286 5.00009 14 5.00009C13.774 5.00009 13.547 5.07609 13.36 5.23209C12.936 5.58509 12.878 6.21609 13.232 6.64009L16.865 11.0001L5 11.0001C4.448 11.0001 4 11.4481 4 12.0001C4 12.5521 4.448 13.0001 5 13.0001Z" fill="#1E1E1E"/>
</g>
</svg>
